<?xml version="1.0" encoding="UTF-8" standalone="no"?>
<!-- Created with Inkscape (http://www.inkscape.org/) -->

<svg
   width="110.87813mm"
   height="68.166763mm"
   viewBox="0 0 110.87813 68.166763"
   version="1.1"
   id="svg2383"
   xml:space="preserve"
   xmlns:xlink="http://www.w3.org/1999/xlink"
   xmlns="http://www.w3.org/2000/svg"
   xmlns:svg="http://www.w3.org/2000/svg"><defs
     id="defs2380"><filter
       style="color-interpolation-filters:sRGB"
       id="filter16404"
       x="-0.020568866"
       y="-0.061429448"
       width="1.0411377"
       height="1.1228589"><feGaussianBlur
         stdDeviation="0.17199362"
         id="feGaussianBlur16406" /></filter><filter
       style="color-interpolation-filters:sRGB"
       id="filter16408"
       x="-0.020969406"
       y="-0.058114275"
       width="1.0419388"
       height="1.1162285"><feGaussianBlur
         stdDeviation="0.16271161"
         id="feGaussianBlur16410" /></filter><linearGradient
       xlink:href="#linearGradient27299"
       id="linearGradient27301"
       x1="96.911934"
       y1="259.86615"
       x2="98.497345"
       y2="217.57028"
       gradientUnits="userSpaceOnUse"
       gradientTransform="translate(-1.5061677,-128.677)" /><linearGradient
       id="linearGradient27299"><stop
         style="stop-color:#7136c9;stop-opacity:1;"
         offset="0"
         id="stop27295" /><stop
         style="stop-color:#ab87df;stop-opacity:1;"
         offset="1"
         id="stop27297" /></linearGradient></defs><g
     id="layer1"
     transform="translate(-40.012547,-51.432749)"><path
       style="fill:#ab87df;fill-opacity:1;stroke-width:1.291;stroke-linecap:butt;stroke-linejoin:round;stroke-miterlimit:4;stroke-dasharray:none;stroke-dashoffset:0;paint-order:normal"
       d="m 83.09246,119.50381 c -0.80168,-0.19712 -1.46453,-0.82887 -1.7375,-1.65595 -0.62834,-1.9039 0.69361,-6.19626 3.42347,-11.11603 0.6124,-1.10368 1.06018,-2.09291 0.99505,-2.19829 -0.0683,-0.11044 -0.72795,0.27123 -1.55731,0.90096 -3.64872,2.77049 -7.70847,4.71008 -9.85042,4.70615 -1.55651,-0.003 -3.27474,-1.12583 -3.57931,-2.33932 -0.1946,-0.77538 0.6788,-2.34222 1.86907,-3.35298 2.34189,-1.98872 7.01847,-4.43397 12.37477,-6.470442 l 0.47463,-0.18045 -0.73811,-0.98403 c -3.17243,-4.22934 -6.05433,-10.77376 -7.23021,-16.41883 -0.94892,-4.5555 -0.83286,-10.19468 0.29873,-14.51499 2.34219,-8.94222 8.49803,-13.70733 18.60552,-14.40213 2.569552,-0.17664 6.13106,0.18639 7.83097,0.79821 3.67549,1.32286 6.89972,3.95271 8.88856,7.24999 0.87455,1.4499 1.82676,4.34918 2.09195,6.36953 0.44927,3.42272 0.90634,7.27136 -0.85186,13.35656 -2.71421,9.39378 -6.83985,16.95163 -8.84672,19.29621 0.46796,0.81008 0.96599,1.12201 2.91374,2.566302 6.78321,4.09517 9.7631,7.49626 9.7631,9.55039 0,0.83159 -0.57003,1.23716 -1.52435,1.08456 -1.88578,-0.30155 -6.27435,-3.18234 -10.22013,-6.7088 -1.52367,-1.36174 -1.16683,-0.47503 0.53062,1.31856 3.51951,3.71885 5.38339,6.70069 5.54082,8.86418 0.10887,1.49621 -0.27766,2.27361 -1.51323,3.04343 -2.83944,1.76913 -5.93416,-0.70197 -8.72159,-6.96408 -0.4903,-1.1015 -1.16876,-2.84462 -1.50768,-3.87361 -0.33891,-1.02899 -0.68297,-1.94946 -0.76456,-2.0455 -0.372178,-0.43808 -0.312488,0.19857 0.21283,2.26966 1.8828,7.42308 1.37978,11.65597 -1.385148,11.65597 -1.504212,0 -2.949402,-1.04478 -3.824352,-2.76476 -0.96598,-1.89892 -1.70302,-5.6171 -1.70492,-8.60088 -7.9e-4,-1.26101 -0.0646,-1.72962 -0.23497,-1.72709 -0.1352,0.002 -0.60941,1.1661 -1.12414,2.75956 -2.36153,7.31065 -5.7372,11.30497 -8.89732,10.52794 z"
       id="path125574" /><path
       style="fill:#000000;fill-opacity:0;stroke-width:0.025;stroke-linecap:butt;stroke-linejoin:round;stroke-miterlimit:4;stroke-dasharray:none;stroke-dashoffset:0;paint-order:normal"
       d="m 89.775764,86.878918 c 0.0027,-4.40877 1.112165,-7.87029 3.105658,-9.68972 0.860988,-0.7858 1.605206,-1.13654 2.65693,-1.25216 0.866897,-0.0953 2.281362,-0.0348 3.067198,0.13114 1.6136,0.34078 2.90415,1.17313 3.52703,2.2748 0.47522,0.8405 0.95425,2.48766 1.22909,4.22626 0.24326,1.53888 0.25646,1.72484 0.11944,1.68271 -0.33844,-0.10406 -1.47803,-0.24758 -2.22973,-0.28079 -0.93264,-0.0412 -1.860277,0.0743 -2.376164,0.29581 -0.2433,0.10448 -0.308472,0.10685 -0.666541,0.0242 -0.25482,-0.0588 -0.846714,-0.0945 -1.653646,-0.0998 -1.10381,-0.007 -1.329227,0.0101 -1.852083,0.1417 -1.446305,0.3641 -2.577899,1.2057 -3.189661,2.37226 -0.153638,0.29298 -0.251304,0.38276 -0.677735,0.62307 -0.274026,0.15442 -0.624734,0.36644 -0.779349,0.47116 l -0.28112,0.1904 z"
       id="path130340" /><path
       style="fill:#000000;fill-opacity:0;stroke-width:0.025;stroke-linecap:butt;stroke-linejoin:round;stroke-miterlimit:4;stroke-dasharray:none;stroke-dashoffset:0;paint-order:normal"
       d="m 89.775764,86.878918 c 0.0027,-4.40877 1.112165,-7.87029 3.105658,-9.68972 0.860988,-0.7858 1.605206,-1.13654 2.65693,-1.25216 0.866897,-0.0953 2.281362,-0.0348 3.067198,0.13114 1.6136,0.34078 2.90415,1.17313 3.52703,2.2748 0.47522,0.8405 0.95425,2.48766 1.22909,4.22626 0.24326,1.53888 0.25646,1.72484 0.11944,1.68271 -0.33844,-0.10406 -1.47803,-0.24758 -2.22973,-0.28079 -0.93264,-0.0412 -1.860277,0.0743 -2.376164,0.29581 -0.2433,0.10448 -0.308472,0.10685 -0.666541,0.0242 -0.25482,-0.0588 -0.846714,-0.0945 -1.653646,-0.0998 -1.10381,-0.007 -1.329227,0.0101 -1.852083,0.1417 -1.446305,0.3641 -2.577899,1.2057 -3.189661,2.37226 -0.153638,0.29298 -0.251304,0.38276 -0.677735,0.62307 -0.274026,0.15442 -0.624734,0.36644 -0.779349,0.47116 l -0.28112,0.1904 z"
       id="path133097" /><path
       style="fill:#000000;fill-opacity:0;stroke-width:0.025;stroke-linecap:butt;stroke-linejoin:round;stroke-miterlimit:4;stroke-dasharray:none;stroke-dashoffset:0;paint-order:normal"
       d="m 89.775764,86.878918 c 0.0027,-4.40877 1.112165,-7.87029 3.105658,-9.68972 0.860988,-0.7858 1.605206,-1.13654 2.65693,-1.25216 0.866897,-0.0953 2.281362,-0.0348 3.067198,0.13114 1.6136,0.34078 2.90415,1.17313 3.52703,2.2748 0.47522,0.8405 0.95425,2.48766 1.22909,4.22626 0.24326,1.53888 0.25646,1.72484 0.11944,1.68271 -0.33844,-0.10406 -1.47803,-0.24758 -2.22973,-0.28079 -0.93264,-0.0412 -1.860277,0.0743 -2.376164,0.29581 -0.2433,0.10448 -0.308472,0.10685 -0.666541,0.0242 -0.25482,-0.0588 -0.846714,-0.0945 -1.653646,-0.0998 -1.10381,-0.007 -1.329227,0.0101 -1.852083,0.1417 -1.446305,0.3641 -2.577899,1.2057 -3.189661,2.37226 -0.153638,0.29298 -0.251304,0.38276 -0.677735,0.62307 -0.274026,0.15442 -0.624734,0.36644 -0.779349,0.47116 l -0.28112,0.1904 z"
       id="path133136" /><path
       style="fill:#000000;stroke-width:0.0935442"
       d="m 88.010392,86.888738 c 0.11381,-3.85384 1.02854,-6.79327 2.66356,-8.55925 1.0587,-1.14349 1.96406,-1.59459 3.45307,-1.72051 0.92732,-0.0784 2.44262,0.0762 3.29115,0.33573 1.96442,0.60094 2.954778,1.68569 3.616238,3.96089 0.24587,0.84569 0.70188,3.30072 0.70188,3.77869 v 0.25591 l -0.72497,-0.13094 c -1.143778,-0.20659 -2.935208,-0.17958 -3.662978,0.0552 -0.50636,0.16337 -0.67335,0.17847 -1.07576,0.0973 -0.76624,-0.15461 -2.63385,-0.1275 -3.32946,0.0483 -1.3939,0.35231 -2.57056,1.19044 -3.18914,2.27161 -0.21231,0.37107 -0.40249,0.55509 -0.81248,0.78617 -0.2944,0.16594 -0.63613,0.36758 -0.75939,0.44811 l -0.2241,0.1464 z"
       id="path1125" /><path
       style="fill:#fdafe9;fill-opacity:1;stroke-width:0.0661458"
       d="m 101.54806,88.231318 c -0.0546,-0.0299 -0.38971,-0.16256 -0.74475,-0.29477 -2.046358,-0.76205 -5.094965,-1.21468 -7.688835,-1.14157 -1.38249,0.039 -1.90803,0.11681 -2.80327,0.4152 -0.26849,0.0895 -0.4983,0.15256 -0.5107,0.14017 -0.0124,-0.0124 0.10698,-0.21561 0.26528,-0.45158 0.69937,-1.04251 1.83352,-1.72702 3.28486,-1.98254 0.63003,-0.11092 1.84879,-0.11113 2.59779,-5.2e-4 l 0.58501,0.0864 -0.98188,0.52904 c -1.775891,1.07916 -0.742624,0.32713 0.08196,-0.0133 1.69521,-0.68214 2.15052,-0.89229 3.737293,-0.84703 0.62832,0.0179 1.355452,0.0812 1.725672,0.15015 l 0.6398,0.11919 0.0474,0.56894 c 0.0476,0.5719 -0.006,2.0781 -0.091,2.5326 -0.0354,0.19042 -0.0671,0.23194 -0.14458,0.18947 z"
       id="path8258" /><path
       style="fill:#000000;fill-opacity:1;stroke-width:0.00206706"
       d="m 95.447086,85.596328 c 0,-5.3e-4 0.0053,-0.004 0.01188,-0.008 0.0065,-0.004 0.02968,-0.0178 0.05142,-0.0309 0.02175,-0.0131 0.05709,-0.0334 0.07855,-0.0451 0.04954,-0.0268 0.663271,-0.35757 0.823047,-0.44354 l 0.12051,-0.0648 0.02418,0.003 c 0.03849,0.004 0.179655,0.003 0.220554,-0.001 0.150058,-0.0163 0.280704,-0.0478 0.548804,-0.13265 0.109736,-0.0347 0.189947,-0.0552 0.307896,-0.0788 0.06128,-0.0122 0.08486,-0.0145 0.03418,-0.003 -0.215358,0.0476 -0.469247,0.12318 -0.748258,0.22265 -0.248187,0.0885 -0.488614,0.18203 -1.081071,0.42064 -0.240814,0.097 -0.267576,0.10811 -0.347351,0.1444 -0.03993,0.0181 -0.04436,0.0199 -0.04436,0.0179 z"
       id="path9535" /><path
       style="fill:none;stroke:#000000;stroke-width:1.7525;stroke-linecap:butt;stroke-linejoin:bevel;stroke-miterlimit:4;stroke-dasharray:none;stroke-opacity:1"
       d="m 74.98788,71.867098 c -0.0047,-0.43461 -0.476576,-3.89614 3.971829,-3.91059 1.416538,-0.004 3.746605,0.75937 3.795821,3.92779"
       id="path9607" /><path
       style="fill:none;stroke:#000000;stroke-width:1.253;stroke-linecap:butt;stroke-linejoin:bevel;stroke-miterlimit:4;stroke-dasharray:none;stroke-opacity:1"
       d="m 84.202084,61.987428 c -0.01485,0.43438 -1.986323,3.97617 -6.430875,3.79049"
       id="path9607-6" /><path
       style="fill:none;stroke:#000000;stroke-width:1.30432;stroke-linecap:butt;stroke-linejoin:bevel;stroke-miterlimit:4;stroke-dasharray:none;stroke-opacity:1"
       d="m 108.44212,62.487838 c 0.0223,0.44718 2.14294,3.91233 6.79658,3.28583"
       id="path9607-6-3" /><path
       style="fill:none;stroke:#000000;stroke-width:1.7525;stroke-linecap:butt;stroke-linejoin:bevel;stroke-miterlimit:4;stroke-dasharray:none;stroke-opacity:1"
       d="m 109.64612,72.072388 c -0.005,-0.43461 -0.47658,-3.89614 3.97182,-3.91059 1.41654,-0.004 3.74661,0.75937 3.79583,3.92779"
       id="path9607-0" /><path
       style="fill:#758cff;fill-opacity:1;stroke-width:0.025;stroke-linecap:butt;stroke-linejoin:bevel;stroke-miterlimit:4;stroke-dasharray:none"
       d="m 47.928553,108.37382 -0.935331,-0.0208 -0.02702,-0.18414 c -0.06786,-0.46232 0.165639,-2.50001 0.313986,-3.96997 0.941907,-9.333262 2.605321,-17.289422 3.964125,-20.316302 0.507788,-1.13115 1.599994,-3.40404 2.785354,-5.19147 0.254314,-0.38349 0.517521,-0.74053 0.783029,-1.08494 1.175828,-1.52527 2.478375,-2.69401 4.105359,-3.67868 0.950467,-0.57523 3.722767,-1.94368 4.558668,-2.25024 0.827193,-0.30336 1.907847,-0.58799 2.810772,-0.74032 1.016489,-0.17149 4.54665,-0.16915 5.826654,0.004 2.126096,0.28738 3.976328,0.78542 3.751829,1.00992 -0.02402,0.024 -0.602681,0.17347 -1.285904,0.3321 -7.590182,1.76224 -13.022363,4.56487 -15.1754,7.82946 -2.575057,3.90448 -4.932119,13.46441 -6.458227,26.193742 l -0.249801,2.0836 -1.916377,0.002 c -1.05401,0.001 -2.337279,-0.007 -2.851711,-0.0183 z"
       id="path12851" /><path
       style="fill:#758cff;fill-opacity:1;stroke-width:0.0242832;stroke-linecap:butt;stroke-linejoin:bevel;stroke-miterlimit:4;stroke-dasharray:none"
       d="m 142.86171,108.57172 0.88246,-0.0208 0.0255,-0.18414 c 0.064,-0.46232 -0.19143,-2.49807 -0.29624,-3.96997 -0.67974,-9.545542 -2.69644,-17.449782 -3.74006,-20.316302 -0.42171,-1.15831 -1.50956,-3.40404 -2.62792,-5.19147 -1.30254,-2.08179 -2.73045,-3.55661 -4.61208,-4.76362 -0.89675,-0.57523 -3.51236,-1.94368 -4.30101,-2.25024 -0.78044,-0.30336 -1.80001,-0.58799 -2.6519,-0.74032 -0.95904,-0.17149 -4.28966,-0.16915 -5.49732,0.004 -2.00592,0.28738 -3.75158,0.78542 -3.53977,1.00992 0.0226,0.024 0.56861,0.17347 1.21322,0.3321 7.16117,1.76224 12.28631,4.56487 14.31766,7.82946 2.42951,3.90448 4.65334,13.46441 6.09319,26.193742 l 0.23568,2.0836 1.80806,0.002 c 0.99444,0.001 2.20517,-0.007 2.69053,-0.0183 z"
       id="path12851-4" /><path
       style="fill:#b4c1ff;fill-opacity:1;stroke-width:0.00624999;stroke-linecap:butt;stroke-linejoin:bevel;stroke-miterlimit:4;stroke-dasharray:none"
       d="m 57.62511,81.445908 c -0.0055,0 -0.149361,-0.29262 -0.684148,0.19293 -0.534786,0.48556 -0.839715,0.36758 -0.841967,0.35952 -0.0024,-0.008 -0.22526,-0.053 -0.331219,-0.72144 -0.105958,-0.66848 -0.358283,-0.86671 -0.360643,-0.86924 -0.0024,-0.003 -0.27872,-0.0953 -0.81421,0.22265 -0.535493,0.31792 -0.659992,0.2661 -0.662535,0.26355 -0.0026,-0.003 -0.203539,-0.0355 -0.06078,-0.45204 l 0.259551,-0.7573 -0.03783,-0.0306 c -0.0208,-0.0169 -0.04304,-0.0306 -0.04941,-0.0306 -0.0064,0 -0.259522,0.22723 -0.562565,0.50495 -0.303045,0.27773 -0.613026,0.49554 -0.617389,0.49118 -0.0044,-0.004 0.231437,-0.35764 0.451731,-0.79263 0.586944,-1.15896 1.271295,-1.92896 1.789963,-2.59254 0.202365,-0.2589 0.411248,-0.48548 0.412735,-0.48342 0,0 -0.226008,0.21751 -0.275738,0.62953 -0.04973,0.41202 0.09825,0.40479 0.103095,0.40965 0.0049,0.005 0.153098,0.0327 0.642694,-0.31201 0.489598,-0.34472 0.751525,-0.20542 0.753859,-0.19572 0.0024,0.01 0.17411,0.11666 0.20994,0.74296 0.03583,0.62631 0.241027,0.49902 0.246467,0.50446 0.308913,-0.23035 1.122346,-0.44263 1.256643,-0.35054 0.126127,0.16523 -0.03568,1.42443 -0.0545,1.63891 -0.0058,0.0659 0.03734,0.0599 0.04534,0.0599 0.008,0 0.333301,-0.14422 0.773467,-0.39374 0.440166,-0.24952 0.626252,-0.24767 0.627897,-0.24599 0.0016,0.002 0.157556,0.0753 -0.03239,0.32033 -0.336241,0.43374 -0.486433,0.63799 -0.738443,1.08297 -0.29055,0.51303 -0.787378,1.44611 -0.994089,2.03921 -0.233144,0.5852 -0.405558,-0.86418 -0.45552,-1.23448 z"
       id="path12467-3" /><path
       style="fill:#b4c1ff;fill-opacity:1;stroke-width:0.00607292;stroke-linecap:butt;stroke-linejoin:bevel;stroke-miterlimit:4;stroke-dasharray:none"
       d="m 133.71286,81.674448 c 0.005,0 0.14102,-0.29262 0.64593,0.19293 0.50491,0.48556 0.7928,0.36758 0.79493,0.35952 0.002,-0.008 0.21267,-0.053 0.31272,-0.72144 0.10004,-0.66848 0.33827,-0.86671 0.3405,-0.86924 0.002,-0.003 0.26315,-0.0953 0.76873,0.22265 0.50558,0.31792 0.62312,0.2661 0.62552,0.26355 0.003,-0.003 0.19217,-0.0355 0.0574,-0.45204 l -0.24505,-0.7573 0.0357,-0.0306 c 0.0196,-0.0169 0.0406,-0.0306 0.0466,-0.0306 0.006,0 0.24502,0.22723 0.53114,0.50495 0.28612,0.27773 0.57878,0.49554 0.5829,0.49118 0.003,-0.004 -0.2185,-0.35764 -0.4265,-0.79263 -0.55415,-1.15896 -1.20028,-1.92896 -1.68997,-2.59254 -0.19106,-0.2589 -0.38828,-0.48548 -0.38968,-0.48342 0,0 0.21338,0.21751 0.26034,0.62953 0.0469,0.41202 -0.0927,0.40479 -0.0973,0.40965 -0.005,0.005 -0.14456,0.0327 -0.60681,-0.31201 -0.46224,-0.34472 -0.70954,-0.20542 -0.71175,-0.19572 -0.002,0.01 -0.16438,0.11666 -0.19821,0.74296 -0.0338,0.62631 -0.22755,0.49902 -0.2327,0.50446 -0.29166,-0.23035 -1.05965,-0.44263 -1.18645,-0.35054 -0.11907,0.16523 0.0337,1.42443 0.0514,1.63891 0.006,0.0659 -0.0352,0.0599 -0.0428,0.0599 -0.008,0 -0.31468,-0.14422 -0.73026,-0.39374 -0.41558,-0.24952 -0.59127,-0.24767 -0.59282,-0.24599 -0.002,0.002 -0.14876,0.0753 0.0306,0.32033 0.31746,0.43374 0.45926,0.63799 0.69719,1.08297 0.27432,0.51303 0.7434,1.44611 0.93856,2.03921 0.22013,0.5852 0.3829,-0.86418 0.43008,-1.23448 z"
       id="path12467-3-0" /><path
       style="fill:#b4c1ff;fill-opacity:1;stroke-width:0.00725509;stroke-linecap:butt;stroke-linejoin:bevel;stroke-miterlimit:4;stroke-dasharray:none"
       d="m 53.528941,95.829378 c -0.0059,0.002 -0.27355,-0.26499 -0.651913,0.49656 -0.378359,0.76157 -0.748881,0.75536 -0.754435,0.74729 -0.0056,-0.008 -0.260327,0.0335 -0.635055,-0.66858 -0.37474,-0.70213 -0.720783,-0.81949 -0.724284,-0.82134 -0.0037,-0.002 -0.333762,0.008 -0.778575,0.5832 -0.44483,0.57485 -0.59754,0.56824 -0.601244,0.56644 -0.0039,-0.002 -0.230368,0.0441 -0.241847,-0.47926 l -0.02087,-0.95152 -0.05223,-0.0185 c -0.02874,-0.0107 -0.05777,-0.0164 -0.06454,-0.0138 -0.0068,0.002 -0.186904,0.3602 -0.400298,0.79462 -0.213391,0.43443 -0.397703,0.84519 -0.404051,0.84212 -0.0062,-0.002 0.05508,-0.51547 0.109709,-1.11027 0.142803,-1.5549 0.400717,-2.65316 0.659149,-3.65734 0.09801,-0.38084 0.188162,-0.72379 0.188162,-0.72379 0,0 0.134181,0.37961 0.242815,0.85967 0.10863,0.48006 0.263171,0.41115 0.270229,0.41458 0.0071,0.004 0.175628,-0.0265 0.561147,-0.61235 0.385515,-0.58588 0.718667,-0.5382 0.724952,-0.52833 0.0065,0.0107 0.230888,0.0585 0.514517,0.74244 0.283633,0.68393 0.451946,0.45755 0.459863,0.46139 0.238206,-0.38399 1.020019,-0.9553 1.198938,-0.9078 0.198902,0.13245 0.52047,1.60366 0.584538,1.85065 0.01967,0.0759 0.06319,0.0515 0.0717,0.0481 0.0085,-0.004 0.297905,-0.29795 0.668175,-0.75729 0.37027,-0.45936 0.568884,-0.53382 0.571292,-0.53262 0.0026,0.001 0.157981,0.01 0.09113,0.37065 -0.121386,0.65519 -0.192766,0.87865 -0.311123,1.51174 -0.12866,0.68821 -0.336558,2.00311 -0.514038,2.75799 -0.142543,0.88923 -0.56336,-0.87164 -0.761659,-1.26418 z"
       id="path12467-3-8" /><path
       style="fill:#b4c1ff;fill-opacity:1;stroke-width:0.00709556;stroke-linecap:butt;stroke-linejoin:bevel;stroke-miterlimit:4;stroke-dasharray:none"
       d="m 137.7364,97.135478 c 0.006,0.002 0.26164,-0.26499 0.62355,0.49656 0.3619,0.76157 0.71632,0.75536 0.72164,0.74729 0.006,-0.008 0.249,0.0335 0.60742,-0.66858 0.35844,-0.70213 0.68944,-0.81949 0.69278,-0.82134 0.004,-0.002 0.31926,0.008 0.74472,0.5832 0.42548,0.57485 0.57155,0.56824 0.57509,0.56644 0.004,-0.002 0.22035,0.0441 0.23133,-0.47926 l 0.0201,-0.95152 0.0499,-0.0185 c 0.0275,-0.0107 0.0553,-0.0164 0.0617,-0.0138 0.007,0.002 0.17877,0.3602 0.38289,0.79462 0.20411,0.43443 0.38041,0.84519 0.38648,0.84212 0.006,-0.002 -0.0527,-0.51547 -0.10494,-1.11027 -0.13659,-1.5549 -0.38329,-2.65316 -0.63048,-3.65734 -0.0937,-0.38084 -0.17998,-0.72379 -0.17998,-0.72379 0,0 -0.12835,0.37961 -0.23225,0.85967 -0.10391,0.48006 -0.25174,0.41115 -0.25848,0.41458 -0.007,0.004 -0.16798,-0.0265 -0.53674,-0.61235 -0.36875,-0.58588 -0.68741,-0.5382 -0.69341,-0.52833 -0.006,0.0107 -0.22085,0.0585 -0.49216,0.74244 -0.27129,0.68393 -0.43229,0.45755 -0.43985,0.46139 -0.22785,-0.38399 -0.97565,-0.9553 -1.14681,-0.9078 -0.19023,0.13245 -0.49782,1.60366 -0.55911,1.85065 -0.0188,0.0759 -0.0604,0.0515 -0.0686,0.0481 -0.008,-0.004 -0.28494,-0.29795 -0.6391,-0.75729 -0.35418,-0.45936 -0.54415,-0.53382 -0.54647,-0.53262 -0.003,0.001 -0.1511,0.01 -0.0871,0.37065 0.11609,0.65519 0.18437,0.87865 0.29759,1.51174 0.12307,0.68821 0.32191,2.00311 0.49167,2.75799 0.13635,0.88923 0.53886,-0.87164 0.72853,-1.26418 z"
       id="path12467-3-8-2" /><path
       style="fill:#b4c1ff;fill-opacity:1;stroke-width:0.01625;stroke-linecap:butt;stroke-linejoin:bevel;stroke-miterlimit:4;stroke-dasharray:none;filter:url(#filter16404)"
       d="m 54.453206,110.83177 c -1.394274,-0.83208 -1.604703,-1.09183 -1.686718,-1.02512 -0.05457,0.0444 -0.467348,0.69946 -1.07373,0.95799 l -1.139875,0.37293 -1.157004,-0.85718 c -0.840181,-0.62246 -1.11328,-0.65875 -1.11328,-0.65875 0,0 -0.673951,-0.17606 -1.587444,0.089 l -1.275638,0.37011 -2.217627,0.61652 c -1.250595,0.34768 -1.561737,0.0239 -1.568542,0.0172 -0.0068,-0.007 -0.564986,-0.10432 -0.280366,-0.54014 0.28462,-0.43582 0.506907,-0.81039 0.493974,-0.83238 -0.01294,-0.022 -0.441153,-0.21198 -0.9516,-0.4222 -0.510448,-0.21022 -0.465066,-0.36101 -0.465066,-0.38563 0,-0.0246 -0.07869,-0.15537 0.391054,-0.24003 0.469744,-0.0847 0.887629,-0.17467 0.928637,-0.20001 0.05108,-0.0316 -0.05122,-0.37542 -0.324908,-1.09204 -0.21971,-0.57529 -0.126619,-0.55415 -0.126619,-0.5897 0,-0.0355 0.0412,-0.29471 0.42504,0.0607 l 0.697894,0.64626 0.211611,-0.19777 c 0.116388,-0.10878 0.924245,-0.73733 1.689354,-1.50874 0.560739,-0.56535 1.259779,-0.68548 1.304018,-0.61396 0.03178,0.0514 0.580577,0.0623 0.936582,0.76196 0.356008,0.69966 0.757606,0.65253 0.781278,0.65318 0.02368,5.3e-4 0.624982,-0.0203 1.447403,-0.80444 0.82242,-0.78416 1.459886,-0.6724 1.459886,-0.6724 0,0 0.730226,-0.0374 1.428536,0.74432 0.839231,0.93951 1.335997,0.88931 1.384747,0.85144 0.04057,-0.0315 0.680542,-0.055 1.472702,-0.67869 0.79216,-0.62371 1.436828,-0.671 1.462913,-0.671 0.02609,0 0.701598,0.16584 1.470819,0.93443 l 1.340709,1.17422 0.369065,0.009 c 0.207683,0.005 0.328139,-0.0414 0.328139,-0.0414 0,0 0.152165,0.2043 0.236585,0.52596 l 0.153491,0.58483 0.45199,0.36519 c 0.248594,0.20086 0.09646,0.34451 0.09646,0.36975 0,0.0252 -0.609965,0.32177 -1.79002,0.60842 l -1.806556,0.64522 -0.485825,0.67397 c -0.260952,0.36201 -0.351455,0.59585 -0.351455,0.59585 0,0 -0.222956,0.20138 -1.56061,-0.59691 z"
       id="path21745" /><path
       style="fill:#b4c1ff;fill-opacity:1;stroke-width:0.0156537;stroke-linecap:butt;stroke-linejoin:bevel;stroke-miterlimit:4;stroke-dasharray:none;filter:url(#filter16408)"
       d="m 137.48285,112.25338 c 1.29384,-0.83208 1.4891,-1.09183 1.56522,-1.02512 0.0507,0.0444 0.43368,0.69946 0.99638,0.95799 l 1.05775,0.37293 1.07366,-0.85718 c 0.77965,-0.62246 1.03308,-0.65875 1.03308,-0.65875 0,0 0.62541,-0.17606 1.47308,0.089 l 1.18374,0.37011 2.05789,0.61652 c 1.16049,0.34768 1.44922,0.0239 1.45553,0.0172 0.006,-0.007 0.52429,-0.10432 0.26018,-0.54014 -0.26412,-0.43582 -0.4704,-0.81039 -0.45841,-0.83238 0.0121,-0.022 0.40938,-0.21198 0.88306,-0.4222 0.47368,-0.21022 0.43156,-0.36101 0.43156,-0.38563 0,-0.0246 0.073,-0.15537 -0.36289,-0.24003 -0.4359,-0.0847 -0.82367,-0.17467 -0.86172,-0.20001 -0.0474,-0.0316 0.0475,-0.37542 0.30149,-1.09204 0.20387,-0.57529 0.11749,-0.55415 0.11749,-0.5897 0,-0.0355 -0.0383,-0.29471 -0.39442,0.0607 l -0.64762,0.64626 -0.19636,-0.19777 c -0.10795,-0.10878 -0.85768,-0.73733 -1.56768,-1.50874 -0.52032,-0.56535 -1.16901,-0.68548 -1.21005,-0.61396 -0.0295,0.0514 -0.53877,0.0623 -0.86913,0.76196 -0.33035,0.69966 -0.70303,0.65253 -0.72498,0.65318 -0.022,5.3e-4 -0.57997,-0.0203 -1.34315,-0.80444 -0.76316,-0.78416 -1.3547,-0.6724 -1.3547,-0.6724 0,0 -0.67763,-0.0374 -1.32564,0.74432 -0.77877,0.93951 -1.23975,0.88931 -1.28498,0.85144 -0.0377,-0.0315 -0.63153,-0.055 -1.36662,-0.67869 -0.73509,-0.62371 -1.33331,-0.671 -1.35752,-0.671 -0.0242,0 -0.65105,0.16584 -1.36486,0.93443 l -1.24412,1.17422 -0.34248,0.009 c -0.19273,0.005 -0.3045,-0.0414 -0.3045,-0.0414 0,0 -0.14126,0.2043 -0.21955,0.52596 l -0.14246,0.58483 -0.41943,0.36519 c -0.23069,0.20086 -0.0895,0.34451 -0.0895,0.36975 0,0.0252 0.56603,0.32177 1.66107,0.60842 l 1.67643,0.64522 0.45081,0.67397 c 0.24216,0.36201 0.32614,0.59585 0.32614,0.59585 0,0 0.2069,0.20138 1.44819,-0.59691 z"
       id="path21745-8" /><path
       style="fill:url(#linearGradient27301);fill-opacity:1;stroke-width:0.131753;stroke-linecap:butt;stroke-linejoin:bevel;stroke-miterlimit:4;stroke-dasharray:none"
       d="m 81.734107,118.41381 c -1.041392,-1.21725 -0.351414,-4.49481 1.946014,-9.24403 1.12461,-2.32479 1.900106,-4.36719 1.723327,-4.53868 -0.176778,-0.17149 -1.442141,0.4362 -2.811915,1.35043 -5.447191,3.63561 -9.638987,4.62919 -11.430087,2.70927 -1.871029,-2.00559 1.150003,-4.82857 9.057026,-8.46327 l 5.286438,-2.430072 -1.685792,-2.51401 c -1.728029,-2.577 -1.749813,-3.84061 -0.04033,-2.33985 0.526903,0.46257 2.304875,1.44919 3.951048,2.1925 4.391917,1.98311 9.948933,1.92332 14.427784,-0.15523 1.79688,-0.83391 4.36179,-2.36662 5.6998,-3.40603 1.33799,-1.03941 2.34962,-2.101526 2.47807,-1.976926 0.12845,0.12461 -0.72553,2.455587 -2.12773,4.796636 -0.97653,1.630369 -1.76419,3.156673 -2.0969,4.020252 -0.14502,0.37643 -0.20361,0.62694 -0.15371,0.705258 0.16437,0.257983 2.19456,1.758132 4.51154,3.333652 6.69788,4.55447 9.56221,9.27627 6.50685,9.27135 -1.45857,-0.002 -3.34456,-1.83289 -7.60897,-5.08011 -1.72523,-1.31371 -3.28796,-2.24191 -3.47274,-2.06266 -0.18477,0.17924 0.81771,1.57065 2.22776,3.09202 4.69596,5.06673 5.82059,8.65816 3.2274,10.30644 -1.35823,0.86331 -1.52137,0.85752 -3.4032,-0.12069 -1.54414,-0.80267 -2.45439,-1.95181 -4.16053,-5.25239 -1.20116,-2.3237 -2.48331,-5.04118 -2.84921,-6.03884 -1.103858,-3.00975 -1.351248,-1.45974 -0.44575,2.79284 1.10103,5.17093 1.07391,7.35205 -0.10905,8.76923 -0.811928,0.97267 -1.008189,1.5098 -2.25063,1.05156 -2.150299,-0.79307 -3.9051,-4.64679 -4.266639,-9.28409 -0.166912,-2.14093 -0.495536,-3.89259 -0.730272,-3.89259 -0.234737,0 -0.953271,1.36676 -1.596743,3.03725 -1.650932,4.28591 -3.811995,7.98098 -5.357325,9.16016 -1.587227,1.21114 -3.511553,1.30232 -4.445529,0.21062 z"
       id="path27066" /><ellipse
       style="fill:#b99ce4;fill-opacity:1;stroke-width:0.0548587;stroke-linecap:butt;stroke-linejoin:bevel;stroke-miterlimit:4;stroke-dasharray:none"
       id="path31510"
       cx="92.129135"
       cy="61.272881"
       rx="5.6885414"
       ry="3.2411456"
       transform="rotate(-3.2591491)" /><ellipse
       style="fill:#b99ce4;fill-opacity:1;stroke-width:0.018125;stroke-linecap:butt;stroke-linejoin:bevel;stroke-miterlimit:4;stroke-dasharray:none"
       id="path31510-0"
       cx="103.73186"
       cy="55.473"
       rx="1.521354"
       ry="1.3229165" /></g></svg>
